<svg xmlns="http://www.w3.org/2000/svg" viewBox="0 0 175.96 2029.18"><defs><style>.cls-1{fill:#e8a6a2;stroke:#231f20;stroke-miterlimit:10;stroke-width:0.25px;}</style></defs><g id="Layer_2" data-name="Layer 2"><g id="Layer_1-2" data-name="Layer 1"><path class="cls-1" d="M115.61,60c-.58,2.51-1.16,5-1.93,7.34,34,6,46.54,27.23,46.54,50,0,30.7-26.26,49.24-74.54,54.65a74.87,74.87,0,0,0-5.22-11.59c40-3.86,65.66-17.77,65.66-42.68v-1.35c-1-22.4-16-33.41-36.69-36.88A152.6,152.6,0,0,1,71,136.28a43.62,43.62,0,0,0,5,10.43l-11.39,7.15A49.92,49.92,0,0,1,60,144.2c-15.45,11.39-27.81,14.48-36.5,14.48C8,158.68.12,147.29.12,133c0-26.65,22-47.9,50-59.1-.38-10-.38-21.05-.19-32.44-32.64,0-36.11,0-42.49-.39L7.08,28.33c9.85.58,26.65.58,43.26.58.19-8.89.57-19.7,1-28.78L70.61,1.49c-.19,1.93-2.12,3.47-5,3.86-.58,7.14-1,16-1.54,23.17,21-.58,57.93-3.09,77.44-8.11l1.73,13.13c-20.47,5-57.74,7-79.75,7.53-.39,10-.58,19.7-.39,28.78a100.44,100.44,0,0,1,29-4.44c2.89,0,5.41,0,7.92.19.77-3.09,1.35-6,1.93-9.08ZM56.32,132c-3.09-12-4.83-27.23-5.6-45.19-21,9.27-37.46,25.3-37.46,44,0,11.4,6.37,15.26,13.32,14.87C35.66,145.55,46.09,140.34,56.32,132ZM95.91,77.77c-3.09-.2-18.15-.58-32.64,4.63.39,15.64,1.74,29,4.45,39.78A126.79,126.79,0,0,0,95.91,77.77Z"/><path class="cls-1" d="M70.57,234c-.58,1.54-2.51,3.09-6,3.28-1.35,8.5-3.09,18.54-4.83,26.07,18.93-1.16,40-4.44,56.78-9.46L118.65,267c-18,4.44-39.2,7.53-61.41,9.27-9.27,37.08-22,67.2-40.94,95L3.36,366.07c17.58-25.3,30.9-54.27,39.21-89.41H4.14V264.1h23c6,0,12.16-.19,17.76-.19a318.28,318.28,0,0,0,5.41-32.64Zm51.37,82.26c.19,15.65,1.35,26.27,2.51,39.59a197.39,197.39,0,0,1,41.13,22.41l-7,12.35a182,182,0,0,0-34.18-20.27c0,19.31-7.73,34.37-36.11,34.37-21.44,0-37.86-9.65-37.66-27.81,0-19.31,20.27-28.58,38-28.58,7,0,14.1,1.35,21.82,3.48-.77-12.36-1.74-24.91-1.74-34Zm-10.62,48.28a64.45,64.45,0,0,0-23-4.44c-11.59,0-25.3,4.64-25.5,16.61,0,11,10.82,16.22,25.88,16.22,13.91,0,22.79-6.76,22.79-19.5C111.51,370.32,111.51,367.42,111.32,364.52Zm52.91-68.17c-21.82.2-48.28,3.67-68.36,9.47l-2.13-12.17c22-6.37,48.67-10.43,69.72-10.43Z"/><path class="cls-1" d="M115.71,502.39c-16.41,5.79-38.23,9.46-59.28,11-8.11,44.23-19.89,88.26-35.34,120.7L7.18,628.88C23,597.78,34.6,557.81,42.14,514c-3.87.2-29.74.39-35.54.2L6.41,501c3.09.2,7.15.2,11.59.2,1.73,0,21,0,26.07-.2,1.93-12.36,3.86-25.87,5-37.65L69,465.31c-.19,2.12-2.9,3.67-5.6,3.86-1.16,8.5-3.09,18.92-4.83,30.71,18.93-1.74,38-5,54.07-10.82ZM167.08,631c-5.79.19-11.78.39-17.76.39-18.16,0-35.35-1.35-45.77-4.25-13.71-3.86-21.63-13.91-21.44-26.65.19-8.5,3.86-18.15,12-28l11.59,5c-6.76,7.92-10,15.45-10,21.43,0,15.26,14.68,19.12,49.82,19.12,7.15,0,14.49-.19,21.63-.77ZM91.77,537.92c19.89-6.37,47.31-10.43,70.1-9.85V541.2c-21.82-.58-47.12,2.51-66.82,8.69Z"/><path class="cls-1" d="M163.57,774.46a2.71,2.71,0,0,1-1.16.39,4.88,4.88,0,0,1-2.9-1.16c-14.67,4.83-36.11,12.75-52.14,19.7q.59,6.66.58,15.06c0,6.18-.19,13.13-.58,20.67l-14.1.77c.58-6.95,1-15.84,1-23.37,0-2.9,0-5.6-.19-7.72-21.83,10.62-39.59,23.56-39.59,35.14,0,11.21,13.32,16.61,40,16.61,18.73,0,36.11-.38,48.47-1.93l.2,12.94c-11.4,1.16-28.78,1.54-48.67,1.54-37.08,0-53.49-8.88-53.49-28.58,0-17,22.4-33.41,51.37-47.89-1.16-12.17-6.57-18.15-14.29-18.15-14.1,0-28.78,7.91-46.16,27.23-5.41,6-12.94,13.52-21.24,21l-9.46-9.47c19.31-17,37.46-33.21,48.66-71.26l-10.81.2H6.76V723.67c11.78.2,25.49.2,33.41.2l13.13-.2a251.9,251.9,0,0,0,5.21-27.61l18.93,2.32c-.39,1.93-1.93,3.09-4.83,3.47-1.35,7.73-3.09,14.49-4.83,21.44,13.13-.19,41.33-3.28,66.43-11.2L136.53,725c-24.14,7.53-53.3,10.23-72.42,10.81-4.63,14.49-9.46,26.07-13.9,32.64h.19c8.5-7.53,21.24-12.56,31.09-12.56,13.14,0,21.44,9.47,24,25.11,16.22-7.34,36.69-15.26,52.14-21.24Z"/><path class="cls-1" d="M132.43,1039.21l9.07,5.79a3.93,3.93,0,0,1-2.7,1.74c-9.27,12.55-22,22.59-37.08,30.51,21.63,7.53,47.12,12.17,74,14.29a56.18,56.18,0,0,0-7.53,11.59c-29.36-2.9-57.36-9.27-80.53-19.31-23.76,9.85-51.76,15.83-80.34,19.5a47.07,47.07,0,0,0-6.76-11c25.88-2.7,51.56-7.33,73.38-15.06-10.81-6-20.47-12.94-28.19-21a201.81,201.81,0,0,1-34,18.54A72.06,72.06,0,0,0,3,1066.43c22.79-8.69,47.31-24.14,61.6-41.52-8.49-1.35-10.81-5-10.81-13.9V991.12l15.84,1.16c-.2,1.35-1.16,2.32-3.67,2.51V1011c0,3.86,1.35,4.63,9.84,4.63h30.32c6.38,0,7.73-1.54,8.31-13.71,2.51,1.74,7.34,3.09,10.62,3.87-1.35,16-4.83,19.7-17.38,19.7H70.44l9.27,3.66a4.76,4.76,0,0,1-4.25,1.36c-2.7,3.08-5.6,6.17-8.88,9.27h63.53ZM19.65,979.34v21.24H7.29V968.52H42.44C40.12,962,34.71,953.27,29.5,946.9l5.21-2.13-21.24.58a34.92,34.92,0,0,0-2.71-10c48.67-1.55,108.54-5.41,140-12l9.84,9.84a2.84,2.84,0,0,1-1.93.58,8.58,8.58,0,0,1-1.93-.38c-18.34,3.47-44.22,6.37-71.84,8.49,4.83,7.15,9.08,16,10.62,22.21L84,968.33c-1.36-7-6.38-17.38-11.59-25.1l1.74-.58c-10.82.77-21.83,1.35-32.45,1.73,5.6,6.76,10.82,15.07,12.75,21.25L48,968.52h72a212.57,212.57,0,0,0,18.73-28.58l14.29,6.38c-.58,1-1.93,1.54-4.05,1.54a205.75,205.75,0,0,1-15.45,20.66h34.57v33.22H155.22v-22.4H78.55C88.4,983.78,99.79,990,105.78,995l-7,8.11c-6.38-5.4-18.93-12.74-29.36-17.38l5.8-6.37Zm24.91,15.83c-4.25,12.94-11.2,24.72-25.49,31.29l-8.88-7.92c12.55-5.21,20.27-15.64,23.94-27Zm10,54.66v.19c8.31,8.5,19.7,15.84,33,21.63,13.13-5.79,24.52-13.13,32.82-21.82ZM156,1025.3c-6.37-8.49-20.08-21.24-31.67-30.13l8.88-6.37c11.78,8.31,25.69,20.47,32.25,29.16Z"/><path class="cls-1" d="M42.59,1163.55c-.38,2.32-2.12,3.67-6,4.25-1.54,22.4-3.47,73.58-3.47,102.16,0,28.77,14.29,42.68,38.62,42.68,23.56,0,47.51-11.78,69.52-36.7,1.94,3.09,6.38,9.27,8.69,11.4-22.59,25.68-50,39.2-78.4,39.2-35.15,0-53.11-20.28-53.11-56.78,0-24.33,1.74-84.2,3.09-108Z"/><path class="cls-1" d="M2.57,1413c14.48-.57,133.44-9.07,158.55-9.26l.19,14.48c-2.51-.2-4.83-.2-7.14-.2-11.2,0-20.67,1.94-33,9.85-29,17.38-57,48.47-57,73.39,0,27,18.93,43.06,66.82,49.24l-6.37,13.52c-54.85-7.92-75.32-28.39-75.32-62.76,0-27.23,26.85-60.25,62.19-82.46-20.47,1.35-78.22,5.79-103.13,8.11A5.85,5.85,0,0,1,4.11,1430Z"/><path class="cls-1" d="M7.94,1648.61c12,.78,28,.78,41.13.78,8.69,0,18.54-.2,26.65-.39-.19-9.27-.39-20.09-.39-26.84l19.51,1c-.19,2.32-1.93,3.48-5.22,4.06-.19,3.09,0,18,0,21.24,22.6-1.16,45-3.09,64.12-7.53l1.74,12.74c-18.93,4.25-41.33,6.18-65.86,7.34.2,11.59.39,23.56.78,35.54,18.73-1.16,38.81-3.67,54.46-7.53l1.54,12.55c-16.22,3.47-36.5,5.79-55.81,6.76l1.55,32.25q26.64,8.68,56.77,30.12l-8.5,11.78c-17.38-13.71-33.79-23-47.89-28.38,0,3.08.19,6.56.19,9.07-.19,18.35-11.2,29-34.56,29-24.53,0-42.49-10-42.49-28.2,0-18.53,21.05-28.77,42.68-28.77a84.88,84.88,0,0,1,20.28,2.32c-.2-8.31-.58-18.35-.78-28.78-6.18.2-13.13.39-18.73.39-33,0-42.29-5.22-42.29-16.42,0-7.34,5.6-13.32,18-21.24l9.27,6c-8.69,4.83-13.33,9.07-13.33,12.93,0,5.8,9.08,7,33.61,7,4.25,0,8.69,0,12.94-.2l-1.16-35.72c-8.31.38-18,.38-26.65.38-12.36,0-29.94,0-41.52-.38Zm71.45,100.62a80.94,80.94,0,0,0-21.63-3.09c-14.68,0-29.55,6-29.55,17.57,0,11.4,13.52,17,30.32,17,15.26,0,21-6.76,21-20.28Z"/><path class="cls-1" d="M96.34,1882.27c-.2-4.26-.78-25.31-1.16-30.13l19.89.77c-.19,1.55-1.55,3.48-5,4,0,2.32,0,4.64.38,24.92,23.76-.77,48.67-1.35,63.15-1.55v13.33c-16.41-.39-39.78,0-62.76.77.39,15.06.77,29,1.35,39.59,1.93,6.37,2.32,12.17,2.32,20.28a83.33,83.33,0,0,1-1.93,18.73c-5,22.59-21.63,42.49-55.62,56a106.23,106.23,0,0,0-9.85-11c29.55-10.62,45.38-26.64,50.21-45h-.19a24.26,24.26,0,0,1-19.89,10.23c-17.19,0-32.44-14.09-32.44-33.79-.2-20.47,16.41-36.12,34.76-36.12,6.95,0,14.09,2.52,18,6,0-3.28-.39-16.22-.78-24.52-20.08.38-81.11,2.51-89,2.89L7.31,1885l44-1.16Zm3.67,67.78c0-7.53,0-25.11-19.7-25.11-13.33.2-22.79,10.43-23,24.53,0,13.52,10.23,22.4,21.43,22.4C92.47,1971.87,100,1961.25,100,1950.05Z"/></g></g></svg>