<svg xmlns="http://www.w3.org/2000/svg" viewBox="0 0 428.95 132.75"><defs><style>.cls-1{fill:#e8a6a2;}</style></defs><g id="Layer_2" data-name="Layer 2"><g id="Layer_1-2" data-name="Layer 1"><path class="cls-1" d="M8.59,53.5a1.17,1.17,0,0,1-.52,1A3.18,3.18,0,0,1,6.89,55a6.42,6.42,0,0,1-1.28.14h-.9a2.75,2.75,0,0,1-2.63-1.8A15.41,15.41,0,0,1,1,48.2Q.76,44.84.87,40.13t.2-10.45q.1-5.76-.07-12.43t-1-14Q.83,1.78,1.77,1.63a2.44,2.44,0,0,1,1.76.42A6.29,6.29,0,0,1,5.05,3.5c.47.6.84,1.11,1.11,1.52a13.88,13.88,0,0,1,6-3.15A40.14,40.14,0,0,1,20.39.52,52.67,52.67,0,0,1,29.5.77,50.72,50.72,0,0,1,38,2.39a23.75,23.75,0,0,1,6.33,2.77A5.4,5.4,0,0,1,47.05,8.9q.24,2.08-2.25,4.5T36,18.46c-.65.28-1.64.66-3,1.14s-2.86,1-4.57,1.59S25,22.38,23.16,23s-3.56,1.28-5.23,1.9-3.11,1.2-4.36,1.73A14.78,14.78,0,0,0,10.94,28a.93.93,0,0,0,.35.73,11.6,11.6,0,0,0,1.62,1c.86.48,2.16,1.19,3.92,2.11S21,34.11,24,35.77s6.85,3.77,11.42,6.33,10.13,5.74,16.69,9.53c.23.18.52.39.87.62a6.2,6.2,0,0,1,1,.83,9.11,9.11,0,0,1,.79,1,2,2,0,0,1,.35,1.15,1.5,1.5,0,0,1-.69,1.35,4.82,4.82,0,0,1-1.67.65,9.36,9.36,0,0,1-2,.21H49A8.52,8.52,0,0,1,45.53,56q-2.46-1.45-5.85-3.71t-7.41-5q-4-2.76-8.17-5.43T15.93,37a53.55,53.55,0,0,0-7.34-3.36ZM7.34,10.43A5.91,5.91,0,0,0,6.54,13a14.06,14.06,0,0,0,.07,3.36,18.07,18.07,0,0,0,.76,3.26,5.71,5.71,0,0,0,1.22,2.21,6.34,6.34,0,0,0,2.94-.17q2.18-.45,5.16-1.35c2-.6,4.11-1.33,6.37-2.18s4.42-1.76,6.47-2.7a61.37,61.37,0,0,0,5.54-2.88A13.84,13.84,0,0,0,38.6,9.84c.72-.86.88-1.62.49-2.29S37.48,6.36,35.45,6l-4,0c-1.64,0-3.39,0-5.26,0s-3.8.14-5.78.28A43.63,43.63,0,0,0,14.85,7a23.87,23.87,0,0,0-4.6,1.35A6.48,6.48,0,0,0,7.34,10.43Z"/><path class="cls-1" d="M61.14,30.51a28.07,28.07,0,0,1,2-10.87,25.44,25.44,0,0,1,5.58-8.42,24.84,24.84,0,0,1,8.38-5.43A27.9,27.9,0,0,1,87.59,3.85,40.73,40.73,0,0,1,98.08,5.2a27.3,27.3,0,0,1,9,4.19,21.25,21.25,0,0,1,6.33,7.23,21.76,21.76,0,0,1,2.39,10.56q0,14.26-6.68,21.12t-20.6,6.86a40.56,40.56,0,0,1-10.9-1.39A23.59,23.59,0,0,1,69,49.44a19.88,19.88,0,0,1-5.75-7.61A27.71,27.71,0,0,1,61.14,30.51Zm7.06-1.39q0,10.32,5.16,15.37t15.41,5.06A26.36,26.36,0,0,0,98.12,48a20.94,20.94,0,0,0,7.2-4.47,19.82,19.82,0,0,0,4.6-6.86,23,23,0,0,0,1.63-8.82,15.66,15.66,0,0,0-2.08-8.28,17.44,17.44,0,0,0-5.4-5.61,23.08,23.08,0,0,0-7.58-3.15,39.08,39.08,0,0,0-8.62-1,18.63,18.63,0,0,0-7.44,1.53,20.38,20.38,0,0,0-6.27,4.12,20.15,20.15,0,0,0-4.33,6.12A18,18,0,0,0,68.2,29.12Z"/><path class="cls-1" d="M121.94,1.22h1.17a10.59,10.59,0,0,1,1.84.17,6.2,6.2,0,0,1,1.73.59,1.85,1.85,0,0,1,1,1.24,39.1,39.1,0,0,1,4.85-1.17,56.72,56.72,0,0,1,6.58-.8q3.6-.24,7.58-.14a57,57,0,0,1,7.86.76,39.82,39.82,0,0,1,7.38,2,22.35,22.35,0,0,1,6.16,3.46,16,16,0,0,1,4.22,5.19,15.82,15.82,0,0,1,1.56,7.27,15.52,15.52,0,0,1-1.21,7.52,28,28,0,0,1-4.47,7.16A46.79,46.79,0,0,1,161.34,41,71.71,71.71,0,0,1,153,46.71a80.6,80.6,0,0,1-9,4.53,67.51,67.51,0,0,1-8.76,3.12,41.17,41.17,0,0,1-7.65,1.42,13,13,0,0,1-5.64-.55Zm46.11,19.25a12.91,12.91,0,0,0-2.84-7A16.72,16.72,0,0,0,159.4,9a26.37,26.37,0,0,0-7.65-2.22,49.85,49.85,0,0,0-16.24.42A34.24,34.24,0,0,0,129.21,9V50.24A24.57,24.57,0,0,0,136,49.06a56.31,56.31,0,0,0,8.31-3.25,69.6,69.6,0,0,0,8.58-5,54.59,54.59,0,0,0,7.62-6.16A32.28,32.28,0,0,0,166,27.77,14.63,14.63,0,0,0,168.05,20.47Z"/><path class="cls-1" d="M188.69,53.5a1.17,1.17,0,0,1-.52,1A3.18,3.18,0,0,1,187,55a6.35,6.35,0,0,1-1.28.14h-.9a2.75,2.75,0,0,1-2.63-1.8,15.2,15.2,0,0,1-1.07-5.16c-.17-2.24-.21-4.93-.14-8.07s.14-6.62.2-10.45.05-8-.06-12.43-.45-9.13-1-14c.56-1,1.14-1.49,1.77-1.59a2.44,2.44,0,0,1,1.76.42,6.51,6.51,0,0,1,1.53,1.45c.46.6.83,1.11,1.1,1.52a13.88,13.88,0,0,1,6-3.15A40.25,40.25,0,0,1,200.49.52a52.65,52.65,0,0,1,9.11.25,50.72,50.72,0,0,1,8.45,1.62,23.75,23.75,0,0,1,6.33,2.77,5.4,5.4,0,0,1,2.77,3.74q.24,2.08-2.25,4.5t-8.79,5.06c-.65.28-1.64.66-3,1.14s-2.86,1-4.57,1.59-3.47,1.19-5.3,1.84-3.56,1.28-5.22,1.9-3.12,1.2-4.37,1.73A14.78,14.78,0,0,0,191,28a1,1,0,0,0,.35.73,11.29,11.29,0,0,0,1.63,1c.85.48,2.15,1.19,3.91,2.11s4.15,2.22,7.2,3.88,6.85,3.77,11.42,6.33,10.14,5.74,16.69,9.53c.23.18.52.39.87.62a5.77,5.77,0,0,1,1,.83,8.05,8.05,0,0,1,.79,1,2,2,0,0,1,.35,1.15,1.5,1.5,0,0,1-.69,1.35,4.82,4.82,0,0,1-1.67.65,9.36,9.36,0,0,1-2,.21h-1.73a8.5,8.5,0,0,1-3.5-1.45q-2.46-1.45-5.85-3.71t-7.41-5q-4-2.76-8.17-5.43T196,37a53.55,53.55,0,0,0-7.34-3.36Zm-1.25-43.07a6,6,0,0,0-.8,2.59,14.06,14.06,0,0,0,.07,3.36,18.07,18.07,0,0,0,.77,3.26,5.71,5.71,0,0,0,1.21,2.21,6.34,6.34,0,0,0,2.94-.17q2.18-.45,5.16-1.35c2-.6,4.11-1.33,6.37-2.18s4.42-1.76,6.47-2.7a61.37,61.37,0,0,0,5.54-2.88,13.84,13.84,0,0,0,3.53-2.73c.72-.86.88-1.62.49-2.29S217.58,6.36,215.55,6l-4,0c-1.64,0-3.39,0-5.26,0s-3.8.14-5.78.28A43.87,43.87,0,0,0,195,7a23.87,23.87,0,0,0-4.6,1.35A6.48,6.48,0,0,0,187.44,10.43Z"/><path class="cls-1" d="M242.63,55a11.34,11.34,0,0,1-.69-3.64q-.21-2.6-.32-6.09t0-7.65q.06-4.16.17-8.35t.24-8.1c.1-2.6.2-4.91.32-6.92s.19-3.62.24-4.85.07-1.86.07-1.9c.69-.42,1.3-.76,1.83-1a3.9,3.9,0,0,1,1.84-.42,4,4,0,0,1,1.35.28,1.14,1.14,0,0,1,.73,1.18V55a1.14,1.14,0,0,1-.73,1.18,3.94,3.94,0,0,1-1.35.27,4,4,0,0,1-1.84-.41C243.93,55.78,243.32,55.43,242.63,55Z"/><path class="cls-1" d="M290.27,48.54a64.74,64.74,0,0,1-6.06,3.78,42.25,42.25,0,0,1-6.44,2.87,20.07,20.07,0,0,1-6.61,1.14A15.33,15.33,0,0,1,264.82,55a17.72,17.72,0,0,1-5.3-3.63,17.15,17.15,0,0,1-3.6-5.3,15.77,15.77,0,0,1-1.31-6.33,49.76,49.76,0,0,1,1.49-9.35,52.41,52.41,0,0,1,3.25-9.21,45.82,45.82,0,0,1,4.95-8.31,35,35,0,0,1,6.61-6.75,29.66,29.66,0,0,1,8.21-4.5A27.21,27.21,0,0,1,288.88,0c.6,0,1.27,0,2,0a8.25,8.25,0,0,1,2,.18,2.88,2.88,0,0,1,1.53.86,2.62,2.62,0,0,1,.45,2.05,33.71,33.71,0,0,0-13,3.22A34.42,34.42,0,0,0,271.4,14a35.34,35.34,0,0,0-7,11.21A37.11,37.11,0,0,0,261.81,39a13.19,13.19,0,0,0,.93,5.13,10.12,10.12,0,0,0,2.57,3.67A10.77,10.77,0,0,0,269.22,50a15.57,15.57,0,0,0,5,.76,15.86,15.86,0,0,0,3.47-.51,43.62,43.62,0,0,0,4.6-1.42,47.85,47.85,0,0,0,5-2.15A31.77,31.77,0,0,0,291.76,44a17,17,0,0,0,3.32-3.11,5.33,5.33,0,0,0,1.28-3.29V24.76a12.35,12.35,0,0,0-2.7.21q-1.8.27-4.05.69c-1.5.28-3.06.59-4.67.93l-4.68,1-4.08.86c-1.23.26-2.16.43-2.81.52-.32-.14-.68-.31-1.07-.52a1.13,1.13,0,0,1-.66-.9,2.32,2.32,0,0,1,.73-1.55,15.09,15.09,0,0,1,3.08-2.5c.09,0,.71-.17,1.87-.38s2.62-.45,4.4-.73l5.92-.93c2.17-.35,4.32-.68,6.47-1s4.18-.63,6.09-.9l4.75-.7a6.84,6.84,0,0,0,2.18-.07,11.48,11.48,0,0,1,2.46-.13,3.35,3.35,0,0,1,1.93.65c.51.4.72,1.19.63,2.39L305,24.62a29.4,29.4,0,0,0-1,4.88c-.23,1.87-.4,3.87-.49,6s-.14,4.32-.14,6.58,0,4.49,0,6.68,0,4.31.07,6.34,0,3.88,0,5.54a9.62,9.62,0,0,1-1.66.65,13.78,13.78,0,0,1-2.46.56,7.33,7.33,0,0,1-2.35,0,1.58,1.58,0,0,1-1.35-1.17V44.77Z"/><path class="cls-1" d="M316,30.51a28.07,28.07,0,0,1,2-10.87,25.41,25.41,0,0,1,5.57-8.42A24.94,24.94,0,0,1,332,5.79a28,28,0,0,1,10.46-1.94A40.78,40.78,0,0,1,353,5.2a27.34,27.34,0,0,1,9,4.19,21.28,21.28,0,0,1,6.34,7.23,21.88,21.88,0,0,1,2.39,10.56q0,14.26-6.68,21.12t-20.6,6.86a40.64,40.64,0,0,1-10.91-1.39,23.66,23.66,0,0,1-8.69-4.33,20,20,0,0,1-5.75-7.61A27.88,27.88,0,0,1,316,30.51Zm7.06-1.39q0,10.32,5.16,15.37t15.4,5.06A26.32,26.32,0,0,0,353,48a20.75,20.75,0,0,0,7.2-4.47,19.85,19.85,0,0,0,4.61-6.86,23.17,23.17,0,0,0,1.62-8.82,15.75,15.75,0,0,0-2.07-8.28,17.65,17.65,0,0,0-5.4-5.61,23.22,23.22,0,0,0-7.59-3.15,39,39,0,0,0-8.62-1,18.7,18.7,0,0,0-7.44,1.53A20.38,20.38,0,0,0,329,15.45a20,20,0,0,0-4.32,6.12A17.8,17.8,0,0,0,323.09,29.12Z"/><path class="cls-1" d="M133.35,76.18a23,23,0,0,0,5,.59q3.15.11,6.92,0t7.9-.2c2.74-.1,5.35-.14,7.82-.14s4.72.08,6.75.24a18.81,18.81,0,0,1,4.78.87v4.29a52,52,0,0,1-6.44.41q-4.08.08-8.72.11t-9.28.28a49.7,49.7,0,0,0-8.1,1q-.63,2.84-.9,4.74c-.19,1.27-.32,2.38-.38,3.33a24.31,24.31,0,0,0-.07,2.66c0,.83.07,1.72.13,2.67s.14,2,.21,3.29.11,2.77.11,4.57a80.84,80.84,0,0,0,8.62-.45q4.18-.45,8.31-1t8.27-1a79.09,79.09,0,0,1,8.52-.45v4.71l-33.1,4.15.48,14.2q6.51,0,11.78-.38c3.5-.26,6.84-.52,10-.8s6.29-.54,9.38-.8,6.37-.38,9.84-.38a5.23,5.23,0,0,1-.42,1.84,7.58,7.58,0,0,1-1.11,1.94,4.79,4.79,0,0,1-1.56,1.31,1.47,1.47,0,0,1-1.69-.17q-4.78.56-10.56,1.07t-11.7,1q-5.93.53-11.43,1l-9.66.8Z"/><path class="cls-1" d="M195.39,128.53a1.16,1.16,0,0,1-.52,1,3.34,3.34,0,0,1-1.18.48,5.7,5.7,0,0,1-1.28.14h-.9a2.75,2.75,0,0,1-2.63-1.8,15.45,15.45,0,0,1-1.07-5.16c-.16-2.24-.21-4.92-.14-8.06s.14-6.63.21-10.46,0-8-.07-12.43-.45-9.13-1-14q.84-1.45,1.77-1.59a2.42,2.42,0,0,1,1.77.41,6.52,6.52,0,0,1,1.52,1.46c.46.6.83,1.1,1.11,1.52a13.62,13.62,0,0,1,5.95-3.15,38.93,38.93,0,0,1,8.28-1.35,51.57,51.57,0,0,1,9.1.24,50.69,50.69,0,0,1,8.45,1.63,23.29,23.29,0,0,1,6.33,2.77c1.69,1.11,2.61,2.35,2.77,3.74s-.58,2.88-2.25,4.5-4.59,3.3-8.79,5c-.65.28-1.64.66-3,1.14s-2.86,1-4.57,1.6-3.47,1.19-5.29,1.83-3.57,1.28-5.23,1.91-3.12,1.2-4.36,1.73a14.59,14.59,0,0,0-2.64,1.35.94.94,0,0,0,.35.72,10.45,10.45,0,0,0,1.63,1c.85.49,2.15,1.19,3.91,2.12s4.15,2.21,7.2,3.87,6.86,3.78,11.43,6.34,10.13,5.74,16.68,9.52c.23.18.52.39.87.62a5.4,5.4,0,0,1,1,.83,9.32,9.32,0,0,1,.8,1,2,2,0,0,1,.34,1.14,1.5,1.5,0,0,1-.69,1.35,5,5,0,0,1-1.66.66,9.52,9.52,0,0,1-2,.21h-1.73a8.61,8.61,0,0,1-3.5-1.46q-2.46-1.46-5.85-3.7t-7.41-5q-4-2.77-8.17-5.44T202.73,112a51.71,51.71,0,0,0-7.34-3.35Zm-1.25-43.07a6,6,0,0,0-.79,2.6,13,13,0,0,0,.07,3.35,17.26,17.26,0,0,0,.76,3.26,5.76,5.76,0,0,0,1.21,2.22,6.53,6.53,0,0,0,2.94-.18q2.19-.45,5.16-1.35c2-.6,4.11-1.32,6.37-2.18s4.42-1.75,6.48-2.7,3.9-1.9,5.54-2.87a14,14,0,0,0,3.53-2.74q1.07-1.28.48-2.28T222.26,81c-1,0-2.35,0-4,0s-3.39,0-5.26,0-3.8.14-5.78.28a43.76,43.76,0,0,0-5.57.72,25.5,25.5,0,0,0-4.61,1.35A6.63,6.63,0,0,0,194.14,85.46Z"/><path class="cls-1" d="M253.21,130.26a1.32,1.32,0,0,1-1.14.28,6.5,6.5,0,0,1-1.77-.42,7.57,7.57,0,0,1-1.56-.79c-.44-.3-.61-.57-.52-.8q.69-1.87,2.18-5.82c1-2.63,2.1-5.59,3.33-8.9s2.51-6.77,3.87-10.42,2.66-7.12,3.88-10.42,2.32-6.25,3.29-8.86,1.69-4.56,2.15-5.85a16.82,16.82,0,0,0,.76-2.94,8.62,8.62,0,0,1,.66-2.32,3.17,3.17,0,0,1,1.38-1.49,6.32,6.32,0,0,1,2.95-.52,15.68,15.68,0,0,1,4.15,3.43,24.51,24.51,0,0,1,2.91,4.29,37.1,37.1,0,0,1,2.18,4.88c.62,1.71,1.25,3.42,1.87,5.12s1.29,3.4,2,5.06a22.89,22.89,0,0,0,2.66,4.64,2.71,2.71,0,0,0,1.63,1.11,10.6,10.6,0,0,0,2.35.31,26.16,26.16,0,0,0,2.64-.07,12.36,12.36,0,0,1,2.45,0,4.69,4.69,0,0,1,1.84.59,1.7,1.7,0,0,1,.73,1.56,2.63,2.63,0,0,1-.28,2.15,2.75,2.75,0,0,1-1.56.93,8.94,8.94,0,0,1-2.28.21c-.86,0-1.64-.06-2.36-.11s-1.3-.05-1.76,0-.65.17-.56.45q.84,2.56,1.84,5.68c.66,2.08,1.42,4.15,2.25,6.23s1.73,4.09,2.7,6a25.8,25.8,0,0,0,3.18,5,12.15,12.15,0,0,1-1.24,1.21c-.6.53-1.22,1-1.84,1.52a18.88,18.88,0,0,1-1.73,1.22q-.79.48-.93.27l-12.19-25.75-23.61,5.81c-.24.93-.55,2.14-.94,3.64s-.85,3.09-1.38,4.77-1.15,3.35-1.84,5A17.92,17.92,0,0,1,253.21,130.26ZM271.9,81a33.64,33.64,0,0,1-1.55,6.47c-.77,2.24-1.62,4.46-2.57,6.65s-1.9,4.32-2.87,6.37-1.82,3.94-2.56,5.64a24.07,24.07,0,0,0,5-.52,40.19,40.19,0,0,0,4.85-1.31q2.35-.8,4.57-1.7c1.48-.6,2.88-1.15,4.22-1.66-.13-.65-.34-1.53-.62-2.67s-.61-2.35-1-3.67S278.52,92,278,90.51a31.1,31.1,0,0,0-1.66-4,21.19,21.19,0,0,0-2-3.33A7.54,7.54,0,0,0,271.9,81Z"/><path class="cls-1" d="M356,130.88q-7.51.42-15.23.63t-14.86.17q-7.12,0-12.22-.52a27.71,27.71,0,0,1-7.34-1.42q-2.25-.93-.24-2.6L343.5,85.39q-4.58-.27-9-.17t-8.79.41q-4.36.32-8.73.7c-2.91.25-5.84.45-8.79.58a3.4,3.4,0,0,1-1.08-.13,1,1,0,0,1-.58-.63,4.08,4.08,0,0,1-.28-1.31c-.05-.56-.1-1.32-.14-2.29,3.18-.32,6.64-.64,10.35-1s7.5-.61,11.36-.86,7.68-.48,11.49-.66,7.42-.35,10.84-.49a8,8,0,0,1,2.32.35,1.7,1.7,0,0,1,1.14,1.87A24.33,24.33,0,0,1,350.15,88q-2.56,3.54-6,7.52t-7.3,8.2q-3.92,4.23-7.62,8.17t-6.85,7.38a76.13,76.13,0,0,0-5,5.92,56.82,56.82,0,0,0,10.73.93q6.22,0,13.12-.38t14-1q7.14-.6,13.5-1l.63,6.37Q363.51,130.47,356,130.88Z"/><path class="cls-1" d="M374.25,105.54a28.1,28.1,0,0,1,2-10.87,25.37,25.37,0,0,1,5.57-8.41,25,25,0,0,1,8.38-5.44,28,28,0,0,1,10.46-1.94,40.78,40.78,0,0,1,10.49,1.35,27.34,27.34,0,0,1,9,4.19,21.31,21.31,0,0,1,6.34,7.24A21.85,21.85,0,0,1,429,102.22q0,14.27-6.68,21.12t-20.6,6.85a41,41,0,0,1-10.91-1.38,24,24,0,0,1-8.69-4.33,19.94,19.94,0,0,1-5.75-7.62A27.85,27.85,0,0,1,374.25,105.54Zm7.06-1.38q0,10.31,5.16,15.37t15.4,5a26.32,26.32,0,0,0,9.35-1.59,20.61,20.61,0,0,0,7.2-4.47,19.81,19.81,0,0,0,4.61-6.85,23.25,23.25,0,0,0,1.62-8.83,15.69,15.69,0,0,0-2.07-8.27,17.45,17.45,0,0,0-5.4-5.61,22.8,22.8,0,0,0-7.59-3.15,38.42,38.42,0,0,0-8.62-1,18.86,18.86,0,0,0-7.44,1.52,20.74,20.74,0,0,0-6.27,4.12,19.88,19.88,0,0,0-4.32,6.13A17.73,17.73,0,0,0,381.31,104.16Z"/></g></g></svg>