<svg xmlns="http://www.w3.org/2000/svg" viewBox="0 0 565.12 175.4"><defs><style>.cls-1{fill:#231f20;stroke:#231f20;stroke-miterlimit:10;stroke-width:0.75px;}</style></defs><g id="Layer_2" data-name="Layer 2"><g id="Layer_1-2" data-name="Layer 1"><path class="cls-1" d="M11.68,70.76A1.5,1.5,0,0,1,11,72.12a4.27,4.27,0,0,1-1.55.64,8.29,8.29,0,0,1-1.68.18H6.58a3.61,3.61,0,0,1-3.46-2.36,20.14,20.14,0,0,1-1.41-6.79c-.22-2.95-.28-6.48-.18-10.62s.18-8.71.27-13.75.06-10.49-.09-16.35S1.12,11.06.39,4.62c.73-1.28,1.5-2,2.32-2.1A3.2,3.2,0,0,1,5,3.07,8.59,8.59,0,0,1,7,5c.6.79,1.09,1.46,1.45,2a18.09,18.09,0,0,1,7.84-4.15A52.5,52.5,0,0,1,27.22,1.06a70,70,0,0,1,12,.32A67,67,0,0,1,50.31,3.52a31.1,31.1,0,0,1,8.34,3.65c2.21,1.46,3.43,3.1,3.64,4.92s-.77,3.79-3,5.92-6,4.34-11.57,6.65c-.85.36-2.16.87-3.92,1.5s-3.76,1.34-6,2.1-4.57,1.56-7,2.41S26.17,32.36,24,33.18s-4.1,1.58-5.74,2.28a19.13,19.13,0,0,0-3.46,1.77,1.23,1.23,0,0,0,.46,1,14.75,14.75,0,0,0,2.14,1.37c1.12.63,2.83,1.56,5.14,2.77S28,45.25,32,47.44s9,5,15,8.33S60.36,63.32,69,68.3c.3.24.68.51,1.13.82a7.26,7.26,0,0,1,1.28,1.09,12.65,12.65,0,0,1,1,1.32A2.69,2.69,0,0,1,72.9,73,2,2,0,0,1,72,74.81a6.51,6.51,0,0,1-2.18.87,12.88,12.88,0,0,1-2.65.27H64.89c-.91,0-2.45-.64-4.6-1.91s-4.73-2.9-7.7-4.88-6.23-4.17-9.75-6.6-7.11-4.81-10.75-7.15S24.86,50.94,21.34,49a68.15,68.15,0,0,0-9.66-4.42ZM10,14.09a7.9,7.9,0,0,0-1,3.42,17.3,17.3,0,0,0,.09,4.42,22.69,22.69,0,0,0,1,4.28,7.5,7.5,0,0,0,1.59,2.91,8.39,8.39,0,0,0,3.87-.22q2.88-.6,6.79-1.78c2.61-.79,5.41-1.75,8.38-2.87s5.82-2.31,8.52-3.55,5.13-2.51,7.29-3.78a18.74,18.74,0,0,0,4.65-3.6c.94-1.13,1.15-2.13.63-3S49.7,8.75,47,8.26c-1.34,0-3.08,0-5.24,0s-4.46,0-6.92,0-5,.18-7.61.37a58.72,58.72,0,0,0-7.33.95,32.78,32.78,0,0,0-6.06,1.78A8.7,8.7,0,0,0,10,14.09Z"/><path class="cls-1" d="M80.83,40.51a36.76,36.76,0,0,1,2.69-14.3,33.39,33.39,0,0,1,7.33-11.07,32.73,32.73,0,0,1,11-7.15,36.72,36.72,0,0,1,13.76-2.55,53.72,53.72,0,0,1,13.8,1.77,36,36,0,0,1,11.89,5.52,28.09,28.09,0,0,1,8.34,9.52,28.73,28.73,0,0,1,3.14,13.89q0,18.77-8.79,27.78t-27.1,9a53.55,53.55,0,0,1-14.35-1.82,31.29,31.29,0,0,1-11.44-5.69,26.2,26.2,0,0,1-7.56-10A36.62,36.62,0,0,1,80.83,40.51Zm9.29-1.82q0,13.58,6.79,20.22t20.27,6.65a34.59,34.59,0,0,0,12.3-2.09A27.41,27.41,0,0,0,139,57.59a26.08,26.08,0,0,0,6.06-9A30.35,30.35,0,0,0,147.15,37a20.66,20.66,0,0,0-2.73-10.89,23,23,0,0,0-7.11-7.38,30.26,30.26,0,0,0-10-4.14A51,51,0,0,0,116,13.27a24.61,24.61,0,0,0-9.79,2A26.87,26.87,0,0,0,98,20.7a26.29,26.29,0,0,0-5.7,8.06A23.42,23.42,0,0,0,90.12,38.69Z"/><path class="cls-1" d="M160.82,2h1.55a13.42,13.42,0,0,1,2.41.22,8.19,8.19,0,0,1,2.28.78,2.47,2.47,0,0,1,1.32,1.64,49.09,49.09,0,0,1,6.38-1.55,75.62,75.62,0,0,1,8.65-1c3.16-.21,6.48-.27,10-.18a72.7,72.7,0,0,1,10.34,1,52.18,52.18,0,0,1,9.7,2.6A29.32,29.32,0,0,1,221.54,10a20.91,20.91,0,0,1,5.55,6.84,20.72,20.72,0,0,1,2,9.56,20.42,20.42,0,0,1-1.59,9.89,37,37,0,0,1-5.88,9.42,60.67,60.67,0,0,1-9,8.66,95.39,95.39,0,0,1-11,7.47,107.71,107.71,0,0,1-11.85,6,91.55,91.55,0,0,1-11.52,4.1,54.42,54.42,0,0,1-10.07,1.86,17,17,0,0,1-7.42-.73ZM221.49,27.3a17.06,17.06,0,0,0-3.73-9.24,22.24,22.24,0,0,0-7.66-5.84A35.34,35.34,0,0,0,200,9.31a63.39,63.39,0,0,0-11-.59,65.42,65.42,0,0,0-10.39,1.14,45,45,0,0,0-8.29,2.32v54.3a32.68,32.68,0,0,0,9-1.55,73.79,73.79,0,0,0,10.93-4.28,90.38,90.38,0,0,0,11.29-6.52,70.81,70.81,0,0,0,10-8.11,41.85,41.85,0,0,0,7.15-9.11A19.22,19.22,0,0,0,221.49,27.3Z"/><path class="cls-1" d="M248.64,70.76a1.52,1.52,0,0,1-.68,1.36,4.35,4.35,0,0,1-1.55.64,8.31,8.31,0,0,1-1.69.18h-1.18a3.62,3.62,0,0,1-3.47-2.36,20.39,20.39,0,0,1-1.41-6.79c-.21-2.95-.27-6.48-.18-10.62s.18-8.71.27-13.75.06-10.49-.09-16.35-.59-12-1.32-18.45c.73-1.28,1.51-2,2.32-2.1a3.22,3.22,0,0,1,2.33.55A8.55,8.55,0,0,1,244,5c.61.79,1.1,1.46,1.46,2a18,18,0,0,1,7.83-4.15,52.5,52.5,0,0,1,10.89-1.78,69.93,69.93,0,0,1,12,.32,67.13,67.13,0,0,1,11.12,2.14,31.17,31.17,0,0,1,8.33,3.65c2.22,1.46,3.43,3.1,3.65,4.92s-.78,3.79-3,5.92-6,4.34-11.57,6.65c-.85.36-2.15.87-3.91,1.5s-3.77,1.34-6,2.1-4.57,1.56-7,2.41-4.7,1.69-6.88,2.51-4.1,1.58-5.74,2.28a18.79,18.79,0,0,0-3.46,1.77,1.25,1.25,0,0,0,.45,1,15.38,15.38,0,0,0,2.14,1.37c1.13.63,2.84,1.56,5.15,2.77S265,45.25,269,47.44s9,5,15,8.33,13.33,7.55,21.95,12.53c.3.24.68.51,1.14.82a7.26,7.26,0,0,1,1.28,1.09,11.34,11.34,0,0,1,1,1.32,2.63,2.63,0,0,1,.46,1.5,2,2,0,0,1-.91,1.78,6.56,6.56,0,0,1-2.19.87,12.71,12.71,0,0,1-2.64.27h-2.28q-1.36,0-4.6-1.91t-7.7-4.88q-4.46-3-9.74-6.6t-10.75-7.15Q263.57,51.9,258.3,49a69.18,69.18,0,0,0-9.66-4.42ZM247,14.09A7.76,7.76,0,0,0,246,17.51a18.26,18.26,0,0,0,.09,4.42,23.49,23.49,0,0,0,1,4.28,7.5,7.5,0,0,0,1.6,2.91,8.39,8.39,0,0,0,3.87-.22c1.91-.4,4.18-1,6.79-1.78s5.4-1.75,8.38-2.87,5.81-2.31,8.52-3.55,5.13-2.51,7.28-3.78a18.36,18.36,0,0,0,4.65-3.6c.94-1.13,1.15-2.13.64-3S286.66,8.75,284,8.26c-1.34,0-3.09,0-5.24,0s-4.47,0-6.93,0-5,.18-7.6.37a58.64,58.64,0,0,0-7.34.95,33.24,33.24,0,0,0-6.06,1.78A8.67,8.67,0,0,0,247,14.09Z"/><path class="cls-1" d="M319.61,72.76A15.2,15.2,0,0,1,318.7,68c-.19-2.28-.32-5-.41-8s-.11-6.42-.05-10.06.14-7.31.23-11,.19-7.23.32-10.66.25-6.47.41-9.11.25-4.77.32-6.38.09-2.44.09-2.5c.91-.55,1.71-1,2.41-1.37a5,5,0,0,1,4.19-.18,1.48,1.48,0,0,1,1,1.55V72.76a1.48,1.48,0,0,1-1,1.55,5.07,5.07,0,0,1-1.77.36,5.2,5.2,0,0,1-2.42-.54C321.32,73.76,320.52,73.31,319.61,72.76Z"/><path class="cls-1" d="M382.28,64.24a83.14,83.14,0,0,1-8,5A54.85,54.85,0,0,1,365.84,73a26.37,26.37,0,0,1-8.7,1.5,20.28,20.28,0,0,1-8.34-1.77,23.11,23.11,0,0,1-7-4.79,22.2,22.2,0,0,1-4.74-7,20.49,20.49,0,0,1-1.73-8.33,65.47,65.47,0,0,1,2-12.3,70,70,0,0,1,4.28-12.12,60.21,60.21,0,0,1,6.51-10.93,46.37,46.37,0,0,1,8.7-8.88,39.11,39.11,0,0,1,10.8-5.92,36,36,0,0,1,12.84-2c.79,0,1.67,0,2.64,0a10.93,10.93,0,0,1,2.69.23,3.68,3.68,0,0,1,2,1.14,3.45,3.45,0,0,1,.59,2.69,44.43,44.43,0,0,0-17.13,4.23,45.63,45.63,0,0,0-13.8,10.07,46.57,46.57,0,0,0-9.25,14.76,48.78,48.78,0,0,0-3.37,18.22,17.21,17.21,0,0,0,1.23,6.74,13.33,13.33,0,0,0,3.37,4.83,14.67,14.67,0,0,0,5.15,2.91,20.56,20.56,0,0,0,6.56,1,20.06,20.06,0,0,0,4.55-.68,54,54,0,0,0,6.06-1.87,61.74,61.74,0,0,0,6.52-2.82,41.49,41.49,0,0,0,6-3.6,22,22,0,0,0,4.38-4.1,7,7,0,0,0,1.68-4.33V33a17.19,17.19,0,0,0-3.55.27q-2.37.38-5.33.91t-6.15,1.23l-6.15,1.33-5.37,1.13q-2.42.51-3.69.69c-.43-.18-.9-.41-1.42-.69a1.49,1.49,0,0,1-.86-1.18,3.12,3.12,0,0,1,1-2,19.88,19.88,0,0,1,4.06-3.28,23.64,23.64,0,0,1,2.46-.5c1.52-.27,3.44-.59,5.78-1s4.94-.77,7.79-1.23l8.52-1.32c2.82-.42,5.5-.82,8-1.18l6.24-.91a9.48,9.48,0,0,0,2.87-.09,14.32,14.32,0,0,1,3.23-.19,4.48,4.48,0,0,1,2.55.87c.67.52.94,1.56.82,3.14l-9.47,3.83a39.52,39.52,0,0,0-1.28,6.42q-.45,3.69-.63,7.88c-.13,2.8-.19,5.68-.19,8.66s0,5.9.05,8.79.06,5.66.09,8.33.05,5.1.05,7.29a13.91,13.91,0,0,1-2.19.87,19.84,19.84,0,0,1-3.24.73,9.61,9.61,0,0,1-3.09,0,2.09,2.09,0,0,1-1.78-1.55V59.28Z"/><path class="cls-1" d="M416.17,40.51a37,37,0,0,1,2.69-14.3,33.42,33.42,0,0,1,7.34-11.07,32.63,32.63,0,0,1,11-7.15A36.72,36.72,0,0,1,451,5.44a53.84,53.84,0,0,1,13.8,1.77,36.18,36.18,0,0,1,11.89,5.52A28,28,0,0,1,485,22.25a28.62,28.62,0,0,1,3.14,13.89q0,18.77-8.79,27.78t-27.1,9a53.6,53.6,0,0,1-14.35-1.82,31.32,31.32,0,0,1-11.43-5.69,26.2,26.2,0,0,1-7.56-10A36.61,36.61,0,0,1,416.17,40.51Zm9.3-1.82q0,13.58,6.78,20.22t20.27,6.65a34.51,34.51,0,0,0,12.3-2.09,27.36,27.36,0,0,0,9.48-5.88,26.08,26.08,0,0,0,6.06-9A30.54,30.54,0,0,0,482.5,37a20.57,20.57,0,0,0-2.74-10.89,23.07,23.07,0,0,0-7.1-7.38,30.31,30.31,0,0,0-10-4.14,50.88,50.88,0,0,0-11.34-1.28,24.58,24.58,0,0,0-9.79,2,27,27,0,0,0-8.25,5.42,26.09,26.09,0,0,0-5.69,8.06A23.42,23.42,0,0,0,425.47,38.69Z"/><path class="cls-1" d="M175.83,100.61a30.29,30.29,0,0,0,6.51.77c2.77.09,5.8.11,9.11,0s6.77-.15,10.39-.27,7-.18,10.29-.18,6.21.11,8.89.32a24.86,24.86,0,0,1,6.28,1.14v5.65a70.22,70.22,0,0,1-8.47.54c-3.59.06-7.41.11-11.48.14s-8.14.15-12.21.36a68.08,68.08,0,0,0-10.66,1.32c-.54,2.5-.94,4.57-1.18,6.24s-.41,3.13-.5,4.38-.12,2.41-.09,3.5.09,2.27.18,3.51.18,2.69.27,4.33.14,3.64.14,6a104.66,104.66,0,0,0,11.34-.59q5.52-.58,10.93-1.37t10.89-1.36a102.63,102.63,0,0,1,11.21-.6v6.2l-43.55,5.47.64,18.67q8.56,0,15.48-.5t13.17-1.05q6.24-.54,12.34-1t12.94-.51a6.8,6.8,0,0,1-.55,2.42,9.69,9.69,0,0,1-1.45,2.55,6.49,6.49,0,0,1-2.05,1.73,2,2,0,0,1-2.24-.23q-6.28.74-13.89,1.41T203.11,171q-7.79.69-15,1.28l-12.71,1Z"/><path class="cls-1" d="M257.46,169.48a1.51,1.51,0,0,1-.69,1.36,4.2,4.2,0,0,1-1.55.64,8.14,8.14,0,0,1-1.68.18h-1.19a3.61,3.61,0,0,1-3.46-2.36,20.14,20.14,0,0,1-1.41-6.79c-.21-2.95-.27-6.48-.18-10.61s.18-8.72.27-13.76.06-10.49-.09-16.35-.59-12-1.32-18.45c.73-1.28,1.5-2,2.32-2.1a3.22,3.22,0,0,1,2.33.55,8.75,8.75,0,0,1,2,1.91c.61.79,1.09,1.46,1.46,2a18,18,0,0,1,7.83-4.15A51.85,51.85,0,0,1,273,99.79a68.92,68.92,0,0,1,12,.31,66.8,66.8,0,0,1,11.11,2.14,31.1,31.1,0,0,1,8.34,3.65q3.33,2.19,3.64,4.92t-3,5.92q-3.27,3.19-11.57,6.65c-.85.36-2.15.87-3.91,1.5s-3.77,1.34-6,2.1-4.57,1.56-7,2.41-4.69,1.69-6.87,2.51-4.1,1.58-5.74,2.28a20,20,0,0,0-3.47,1.77,1.23,1.23,0,0,0,.46,1,15.38,15.38,0,0,0,2.14,1.37c1.12.63,2.84,1.56,5.15,2.77s5.46,2.92,9.47,5.11,9,5,15,8.33,13.33,7.55,22,12.53c.3.24.68.52,1.14.82a7.2,7.2,0,0,1,1.27,1.09,10.47,10.47,0,0,1,1.05,1.32,2.71,2.71,0,0,1,.46,1.51,2,2,0,0,1-.91,1.77,6.36,6.36,0,0,1-2.19.87,12.71,12.71,0,0,1-2.64.27h-2.28c-.91,0-2.45-.64-4.6-1.91s-4.72-2.9-7.7-4.88-6.23-4.17-9.75-6.6-7.1-4.81-10.75-7.15-7.23-4.47-10.75-6.38a69.74,69.74,0,0,0-9.65-4.42Zm-1.64-56.67a7.76,7.76,0,0,0-1,3.42,18.26,18.26,0,0,0,.09,4.42,23.49,23.49,0,0,0,1,4.28,7.5,7.5,0,0,0,1.6,2.91,8.39,8.39,0,0,0,3.87-.22q2.87-.6,6.79-1.78c2.61-.79,5.4-1.74,8.38-2.87s5.81-2.31,8.51-3.55a81.47,81.47,0,0,0,7.29-3.78A18.36,18.36,0,0,0,297,112c.94-1.12,1.15-2.13.64-3s-2.11-1.56-4.79-2c-1.33,0-3.08,0-5.23,0s-4.47,0-6.93,0-5,.18-7.61.37a58.72,58.72,0,0,0-7.33,1,32.78,32.78,0,0,0-6.06,1.78A8.61,8.61,0,0,0,255.82,112.81Z"/><path class="cls-1" d="M333.53,171.76c-.25.3-.75.42-1.51.36a8.06,8.06,0,0,1-2.32-.55,10.06,10.06,0,0,1-2.05-1c-.58-.4-.81-.75-.68-1.05q.9-2.46,2.87-7.65t4.37-11.71q2.42-6.51,5.1-13.71t5.1-13.71q2.41-6.51,4.33-11.66t2.82-7.7a22.7,22.7,0,0,0,1-3.87,11.57,11.57,0,0,1,.86-3.06,4.2,4.2,0,0,1,1.82-2,8.26,8.26,0,0,1,3.88-.69,20.89,20.89,0,0,1,5.46,4.51,32.81,32.81,0,0,1,3.83,5.65,50.3,50.3,0,0,1,2.87,6.42l2.46,6.74q1.23,3.38,2.64,6.65a30,30,0,0,0,3.51,6.11,3.53,3.53,0,0,0,2.14,1.46,14,14,0,0,0,3.1.41,33.81,33.81,0,0,0,3.46-.09,15.63,15.63,0,0,1,3.23,0,5.9,5.9,0,0,1,2.42.78,2.21,2.21,0,0,1,.95,2,3.48,3.48,0,0,1-.36,2.83,3.6,3.6,0,0,1-2,1.23,11.7,11.7,0,0,1-3,.27c-1.12,0-2.15-.07-3.1-.13a21.43,21.43,0,0,0-2.32-.05c-.61,0-.85.23-.73.59q1.1,3.38,2.42,7.47c.88,2.74,1.86,5.47,3,8.2s2.27,5.38,3.55,7.93a34.28,34.28,0,0,0,4.19,6.56,17.29,17.29,0,0,1-1.64,1.59c-.79.7-1.59,1.37-2.41,2a26.92,26.92,0,0,1-2.28,1.59c-.7.42-1.11.55-1.23.36l-16-33.89-31.07,7.66c-.3,1.21-.71,2.81-1.23,4.78s-1.12,4.07-1.82,6.29-1.51,4.4-2.42,6.55A23.48,23.48,0,0,1,333.53,171.76ZM358.12,107a43.81,43.81,0,0,1-2.05,8.52q-1.5,4.43-3.37,8.75t-3.78,8.38c-1.27,2.7-2.4,5.18-3.37,7.42a32.47,32.47,0,0,0,6.56-.68,55.42,55.42,0,0,0,6.38-1.73c2.06-.7,4.07-1.44,6-2.23s3.8-1.52,5.56-2.19c-.18-.85-.46-2-.82-3.51s-.81-3.1-1.32-4.83-1.1-3.53-1.73-5.42a42.21,42.21,0,0,0-2.19-5.28,27.31,27.31,0,0,0-2.69-4.37A9.75,9.75,0,0,0,358.12,107Z"/><path class="cls-1" d="M468.77,172.58q-9.88.54-20,.82t-19.54.22q-9.37,0-16.08-.68a36.13,36.13,0,0,1-9.65-1.87c-2-.82-2.08-2-.32-3.41l49.19-54.94q-6-.36-11.84-.23t-11.57.55q-5.75.4-11.48.91c-3.83.34-7.68.59-11.57.78a4,4,0,0,1-1.41-.19,1.38,1.38,0,0,1-.78-.82,5.72,5.72,0,0,1-.36-1.73q-.09-1.09-.18-3,6.28-.64,13.62-1.28t14.94-1.14q7.6-.5,15.12-.86t14.26-.64a10.58,10.58,0,0,1,3.05.45,2.25,2.25,0,0,1,1.5,2.46,32.58,32.58,0,0,1-4.55,8.11q-3.37,4.65-7.84,9.89t-9.61,10.79q-5.14,5.56-10,10.75t-9,9.7q-4.14,4.51-6.6,7.79a75,75,0,0,0,14.12,1.23q8.19.06,17.26-.5t18.45-1.32q9.38-.76,17.77-1.32l.82,8.38Q478.65,172,468.77,172.58Z"/><path class="cls-1" d="M492.77,139.23a37,37,0,0,1,2.69-14.3,33.55,33.55,0,0,1,7.33-11.07,32.67,32.67,0,0,1,11-7.15,36.67,36.67,0,0,1,13.75-2.55,53.86,53.86,0,0,1,13.81,1.77,36,36,0,0,1,11.88,5.52A27.87,27.87,0,0,1,561.6,121a28.62,28.62,0,0,1,3.14,13.89q0,18.76-8.79,27.79t-27.1,9a53.6,53.6,0,0,1-14.35-1.82,31.24,31.24,0,0,1-11.43-5.69,26.2,26.2,0,0,1-7.56-10A36.45,36.45,0,0,1,492.77,139.23Zm9.29-1.82q0,13.58,6.79,20.22t20.27,6.66a34.51,34.51,0,0,0,12.3-2.1,27.54,27.54,0,0,0,9.48-5.88,25.91,25.91,0,0,0,6.05-9,30.35,30.35,0,0,0,2.15-11.61,20.67,20.67,0,0,0-2.74-10.89,23.07,23.07,0,0,0-7.1-7.38,30.31,30.31,0,0,0-10-4.14A51,51,0,0,0,527.94,112a24.58,24.58,0,0,0-9.79,2,27,27,0,0,0-8.25,5.42,26.21,26.21,0,0,0-5.69,8.06A23.43,23.43,0,0,0,502.06,137.41Z"/></g></g></svg>