<svg xmlns="http://www.w3.org/2000/svg" id="Layer_5" data-name="Layer 5" viewBox="0 0 1610.13 224.89"><defs><style>.cls-1{fill:#63c3a3;}.cls-2{fill:#353d4c;}.cls-3{fill:#f7cb3e;}.cls-4{fill:#f16362;}</style></defs><path class="cls-1" d="M318.56,166.66c5.43-17.43-5.22-28.9-14.44-40.76-18.27-23.53-37.18-46.59-54.77-70.62-10.07-13.75-20.65-27-31.23-40.34-1.73-2.18-3.37-4.65-2.27-7.5,1.24-3.21,4.38-3.83,7.4-3.85,15-.11,30.08,0,45.13-.2,4.27-.05,6.71,2.53,8.94,5.41q32.34,41.76,64.59,83.59c4.45,5.75,8.8,11.6,13.46,17.18,2.87,3.44,2.7,6.56.13,9.84Q337,143,318.56,166.66Z" transform="translate(0 -3.39)"></path><path class="cls-2" d="M242.89,226.28c-8,0-15.94-.05-23.9,0-5.33,0-6.22-2.5-4.51-7s5.82-7.38,8.67-11.11q28.54-37.32,57.34-74.44c5.09-6.59,5.21-6.61,10.22-.35,4,5,7.88,10,11.63,15.16,8.41,11.56,8.78,26.59.28,38.25-8.71,11.94-18.1,23.38-27.07,35.13-2.47,3.23-5.52,4.41-9.45,4.34-7.73-.13-15.47,0-23.21,0Z" transform="translate(0 -3.39)"></path><path class="cls-3" d="M212.88,168.64c5.43-17.44-5.22-28.9-14.44-40.76-18.27-23.54-37.18-46.6-54.77-70.62-10.07-13.75-20.65-27-31.23-40.34-1.73-2.18-3.37-4.65-2.27-7.5,1.24-3.22,4.38-3.83,7.4-3.85,15-.12,30.08,0,45.12-.21,4.28,0,6.72,2.54,8.95,5.42Q204,52.54,236.23,94.36c4.45,5.76,8.8,11.6,13.46,17.19,2.87,3.44,2.7,6.55.13,9.84Q231.37,145,212.88,168.64Z" transform="translate(0 -3.39)"></path><path class="cls-2" d="M137.21,228.26c-8,0-15.94-.06-23.9,0-5.33,0-6.23-2.5-4.52-7s5.83-7.37,8.68-11.1q28.54-37.32,57.34-74.44c5.09-6.6,5.21-6.61,10.22-.35,4,5,7.88,10,11.63,15.16,8.41,11.56,8.77,26.59.28,38.25-8.71,11.94-18.1,23.38-27.07,35.13-2.47,3.23-5.52,4.4-9.45,4.34-7.73-.13-15.47,0-23.21,0Z" transform="translate(0 -3.39)"></path><path class="cls-4" d="M104.87,168.64c5.43-17.44-5.22-28.9-14.44-40.76-18.27-23.54-37.18-46.6-54.77-70.62C25.59,43.51,15,30.23,4.43,16.92c-1.73-2.18-3.37-4.65-2.27-7.5C3.4,6.2,6.54,5.59,9.56,5.57c15-.12,30.08,0,45.13-.21,4.27,0,6.71,2.54,8.94,5.42Q96,52.54,128.22,94.36c4.45,5.76,8.8,11.6,13.46,17.19,2.88,3.44,2.7,6.55.13,9.84Q123.36,145,104.87,168.64Z" transform="translate(0 -3.39)"></path><path class="cls-2" d="M29.2,228.26c-8,0-15.94-.06-23.9,0-5.33,0-6.22-2.5-4.51-7s5.82-7.37,8.67-11.1Q38,172.86,66.8,135.74c5.1-6.6,5.21-6.61,10.22-.35,4,5,7.88,10,11.63,15.16,8.41,11.56,8.78,26.59.28,38.25-8.71,11.94-18.1,23.38-27.07,35.13-2.47,3.23-5.52,4.4-9.45,4.34-7.73-.13-15.47,0-23.21,0Z" transform="translate(0 -3.39)"></path><path class="cls-2" d="M445,76.22h38.17V90.86H445V212.18H428.82V90.86H405V76.22h23.79V54.52c0-11,3.4-20.14,10.46-27.46a34.59,34.59,0,0,1,25.89-11H483V31.77H466.22C453.93,31.77,445,42.23,445,56.09Zm73.21-45.76a12.06,12.06,0,0,1,12.29,12c0,7.32-5.23,12.29-12.29,12.29-7.32,0-12.29-5-12.29-12.29C506,35.43,510.93,30.46,518.25,30.46Zm-8.11,181.72v-136h16.21v136Z" transform="translate(0 -3.39)"></path><path class="cls-2" d="M560.86,76.22h16.22v26.41c10.72-19.09,28.23-28.76,52.29-28.76,16,0,29,5.22,39.48,15.68,10.72,10.46,15.95,23.54,15.95,39.22v83.41H668.59V132.43q0-18.42-12.55-30.59c-8.11-8.1-18.3-12.29-30.59-12.29q-20.4,0-34.52,12.55a40.72,40.72,0,0,0-13.85,31.12v79H560.86Z" transform="translate(0 -3.39)"></path><path class="cls-2" d="M726.9,149.17a53.47,53.47,0,0,0,17,36.08c10.46,9.41,23.27,14.12,38.18,14.12,18.82,0,35.3-8.63,45-23l15.69,5.23c-12.29,20.66-34.51,32.95-60.66,32.95-20.66,0-37.65-6.8-51.25-20.14s-20.4-30.07-20.4-50.2S717,107.33,730.3,94s29.8-20.13,49.41-20.13S815.8,80.66,829.13,94,849,124.07,849,144.2a24.33,24.33,0,0,1-.26,5Zm105.37-13.6c-1.83-13.59-7.84-24.84-17.78-33.47-9.67-8.62-21.44-13.07-35-13.07s-25.36,4.45-35,13.07S729,122,727.16,135.57Z" transform="translate(0 -3.39)"></path><path class="cls-2" d="M945.75,107.07c-2.88-11.24-15.17-18.82-32.16-18.82s-30.07,8.62-30.07,21.18c0,8.89,5.23,15.16,16,19.08l35.82,12.81c19.09,7.06,28.76,18.57,28.76,34.78q0,17.66-14.12,28.24c-9.15,6.8-21.18,10.2-35.56,10.2-27.45,0-46.54-13.08-50.46-33.21l15.42-2.88c2.88,12.82,16.48,21.44,35.56,21.44s33.47-9.67,33.47-23.27c0-9.67-6.54-16.73-19.35-21.18l-34.77-12.55c-17.52-6.53-26.41-17.52-26.41-32.42,0-23,19.61-36.6,47.06-36.6,24.84,0,42.1,12,46,30.06Z" transform="translate(0 -3.39)"></path><path class="cls-2" d="M974.51,76.22h23.27V48.76H1014V76.22h40.27V90.86H1014v81.32c0,13.86,8.89,24.32,21.18,24.32H1054v15.68h-19.87a34.57,34.57,0,0,1-25.88-11c-7.06-7.58-10.46-16.73-10.46-27.45V90.86H974.51Z" transform="translate(0 -3.39)"></path><path class="cls-2" d="M1176.62,90.86V16.08h27.19v196.1h-27.19V197.54c-12.55,12-27.71,18-45.23,18q-28.64,0-47.85-20.39c-12.81-13.6-19.09-30.59-19.09-51s6.28-37.39,19.09-51,28.76-20.39,47.85-20.39C1148.91,72.82,1164.07,78.83,1176.62,90.86Zm-71.9,22c-8.11,8.37-12,18.83-12,31.38s3.92,23,12,31.64a39.3,39.3,0,0,0,29.54,12.55,39.89,39.89,0,0,0,29.81-12.55c8.11-8.63,12-19.09,12-31.64s-3.92-23-12-31.38A39.23,39.23,0,0,0,1134.26,100,38.66,38.66,0,0,0,1104.72,112.82Z" transform="translate(0 -3.39)"></path><path class="cls-2" d="M1250.35,154.14c4.19,21.18,22.23,36.08,45,36.08,15.42,0,27.45-5.75,36.08-17l26.67,8.11c-12.55,21.18-35.56,34.25-62.75,34.25-20.66,0-38.18-6.8-52-20.39s-20.91-30.59-20.91-51,6.79-37.39,20.13-51c13.6-13.59,30.59-20.39,50.72-20.39s36.87,6.8,50.21,20.39q20.38,20.4,20.39,51c0,2.09-.26,5.49-.52,9.94Zm85.5-21.71c-5-20.13-22.22-34.25-43.4-34.25-19.87,0-36.87,14.12-41.84,34.25Z" transform="translate(0 -3.39)"></path><path class="cls-2" d="M1362,76.22h28l42.09,101.19,41.84-101.19h28l-57.26,136h-25.36Z" transform="translate(0 -3.39)"></path><path class="cls-2" d="M1582.16,111.78c-2.88-9.15-12.29-15.17-26.67-15.17-12.82,0-22.49,5.49-22.49,14.65,0,6,4.44,10.45,13.07,13.59l30.59,10.46c23.28,8.63,33.47,20.66,33.47,39.22,0,26.93-22,41.05-52.29,41.05-31.12,0-50.73-14.64-54.65-37.91l25.63-3.92c2.35,10.72,13.07,18,29.54,18,14.64,0,25.63-6.28,25.63-16.47q0-9.81-16.48-15.69l-30.33-10.2c-21.18-7.32-30.33-18.3-30.33-36.08,0-26.93,21.18-40.53,50.73-40.53,28,0,46.28,13.33,50.2,34.51Z" transform="translate(0 -3.39)"></path></svg>