<?xml version="1.0" standalone="no"?>
<!DOCTYPE svg PUBLIC "-//W3C//DTD SVG 20010904//EN"
 "http://www.w3.org/TR/2001/REC-SVG-20010904/DTD/svg10.dtd">
<svg version="1.0" xmlns="http://www.w3.org/2000/svg"
 width="1000.000000pt" height="1000.000000pt" viewBox="0 0 1000.000000 1000.000000"
 preserveAspectRatio="xMidYMid meet">
<metadata>
Created by potrace 1.11, written by Peter Selinger 2001-2013
</metadata>
<g transform="translate(0.000000,1000.000000) scale(0.100000,-0.100000)"
fill="#000000" stroke="none">
<path d="M2520 6755 l0 -1022 -62 -23 c-303 -109 -577 -356 -725 -653 -39 -78
-72 -159 -83 -202 -4 -16 -15 -57 -24 -90 -40 -149 -41 -493 -1 -659 57 -242
180 -460 360 -641 140 -141 310 -251 483 -311 l52 -19 0 -453 0 -453 328 3
327 3 2 40 c1 22 2 211 4 421 l2 381 241 -1 241 -1 0 -423 0 -422 45 -1 c42 0
554 0 592 1 18 0 18 15 21 688 0 102 4 152 11 153 6 0 211 2 455 3 l444 3 128
-176 c71 -97 135 -185 143 -196 8 -11 28 -38 44 -60 16 -22 81 -112 145 -200
64 -88 126 -173 140 -189 l23 -28 385 0 c211 1 390 1 397 2 32 1 3 75 -67 170
-53 71 -42 56 -284 389 -114 157 -213 293 -220 301 -14 17 -363 495 -417 570
-190 266 -550 752 -610 825 -92 111 -210 195 -325 233 -91 30 -130 36 -322 43
-48 1 -64 6 -67 18 -9 29 -5 345 4 356 9 11 27 11 247 1 210 -10 356 -59 500
-167 101 -76 123 -104 545 -684 32 -44 61 -84 66 -90 10 -13 505 -691 591
-810 36 -49 69 -94 73 -100 5 -5 26 -35 48 -65 22 -30 43 -60 48 -65 5 -6 26
-35 47 -65 21 -30 41 -57 44 -60 3 -3 11 -12 16 -22 17 -27 548 -752 562 -767
19 -18 792 -19 803 0 14 22 -12 68 -138 243 -211 289 -576 790 -585 801 -33
40 -237 321 -237 327 0 3 35 42 78 86 158 163 195 205 285 322 33 42 110 164
148 235 158 288 258 599 287 895 9 97 8 487 -2 565 -52 406 -205 785 -442
1100 -154 204 -348 390 -564 542 -47 32 -92 62 -100 66 -8 4 -33 18 -55 31
-153 94 -391 190 -611 246 -144 37 -194 46 -329 57 -33 2 -742 6 -1575 9 -833
2 -1525 6 -1537 8 l-23 3 0 -1022z m3025 350 c527 -73 957 -326 1252 -735 214
-297 316 -626 308 -990 -2 -85 -6 -169 -9 -186 -22 -133 -68 -302 -103 -384
-84 -193 -167 -333 -281 -469 -61 -74 -148 -161 -159 -161 -5 1 -46 52 -93
116 -47 63 -89 120 -95 127 -35 44 -75 108 -75 121 0 8 13 30 28 48 123 143
234 403 261 614 12 87 6 421 -8 493 -19 92 -80 262 -127 351 -84 157 -225 322
-359 421 -33 24 -62 46 -65 49 -26 29 -211 119 -315 153 -110 36 -156 45 -270
53 -121 8 -1752 12 -1763 5 -4 -4 -8 -447 -7 -986 l0 -980 -241 -3 -241 -2 0
1179 0 1179 1156 -3 c636 -1 1179 -6 1206 -10z m-68 -1064 c94 -38 171 -87
238 -149 84 -80 162 -198 187 -286 6 -23 13 -48 16 -56 2 -8 6 -60 8 -115 2
-74 -2 -117 -15 -165 -19 -70 -47 -140 -55 -140 -3 0 -33 37 -68 83 -164 217
-377 383 -613 478 -202 81 -323 100 -642 103 -111 1 -205 5 -209 9 -6 6 -8 58
-5 194 1 30 7 57 15 66 12 12 96 14 538 12 l523 -1 82 -33z m-2956 -1303 c3
-180 7 -239 20 -281 60 -190 214 -325 389 -343 25 -3 367 -6 760 -8 393 -2
732 -7 752 -11 37 -7 74 -40 133 -120 17 -22 34 -44 38 -50 60 -77 126 -178
122 -185 -6 -10 -1771 -6 -1865 4 -88 9 -100 13 -200 59 -208 98 -367 304
-409 531 -29 158 13 330 118 481 37 54 131 158 137 152 1 -1 4 -104 5 -229z"/>
</g>
</svg>
